<?xml version="1.0" standalone="no"?>
<!DOCTYPE svg PUBLIC "-//W3C//DTD SVG 20010904//EN"
 "http://www.w3.org/TR/2001/REC-SVG-20010904/DTD/svg10.dtd">
<svg version="1.0" xmlns="http://www.w3.org/2000/svg"
 width="48.000000pt" height="48.000000pt" viewBox="0 0 48.000000 48.000000"
 preserveAspectRatio="xMidYMid meet">

<g transform="translate(0.000000,48.000000) scale(0.100000,-0.100000)"
fill="#000000" stroke="none">
<path d="M202 432 c-8 -5 -13 -13 -12 -18 1 -5 -4 -10 -11 -13 -8 -2 -10 2 -5
15 6 17 6 17 -12 1 -10 -9 -24 -17 -31 -17 -6 0 -11 -8 -9 -17 2 -11 -3 -18
-14 -18 -10 0 -23 -6 -30 -13 -6 -6 -8 -12 -3 -12 4 0 1 -8 -8 -18 -9 -10 -19
-37 -23 -60 l-7 -42 202 0 c172 0 201 2 201 15 0 12 -14 15 -70 15 -56 0 -70
3 -70 15 0 12 14 15 65 15 51 0 65 3 65 15 0 12 -14 15 -65 15 -51 0 -65 3
-65 15 0 12 13 15 56 15 49 0 55 2 44 15 -8 9 -30 15 -56 15 -32 0 -44 4 -44
15 0 10 10 15 28 15 l27 1 -27 15 c-34 18 -109 28 -126 16z m29 -25 c-13 -13
-26 -3 -16 12 3 6 11 8 17 5 6 -4 6 -10 -1 -17z m39 3 c0 -5 -4 -10 -10 -10
-5 0 -10 5 -10 10 0 6 5 10 10 10 6 0 10 -4 10 -10z m-109 -43 c-13 -13 -26
-3 -16 12 3 6 11 8 17 5 6 -4 6 -10 -1 -17z m40 0 c-13 -13 -26 -3 -16 12 3 6
11 8 17 5 6 -4 6 -10 -1 -17z m40 0 c-13 -13 -26 -3 -16 12 3 6 11 8 17 5 6
-4 6 -10 -1 -17z m39 3 c0 -5 -4 -10 -10 -10 -5 0 -10 5 -10 10 0 6 5 10 10
10 6 0 10 -4 10 -10z m-169 -43 c-13 -13 -26 -3 -16 12 3 6 11 8 17 5 6 -4 6
-10 -1 -17z m40 0 c-13 -13 -26 -3 -16 12 3 6 11 8 17 5 6 -4 6 -10 -1 -17z
m40 0 c-13 -13 -26 -3 -16 12 3 6 11 8 17 5 6 -4 6 -10 -1 -17z m40 0 c-13
-13 -26 -3 -16 12 3 6 11 8 17 5 6 -4 6 -10 -1 -17z m39 3 c0 -5 -4 -10 -10
-10 -5 0 -10 5 -10 10 0 6 5 10 10 10 6 0 10 -4 10 -10z m-189 -43 c-13 -13
-26 -3 -16 12 3 6 11 8 17 5 6 -4 6 -10 -1 -17z m40 0 c-13 -13 -26 -3 -16 12
3 6 11 8 17 5 6 -4 6 -10 -1 -17z m40 0 c-13 -13 -26 -3 -16 12 3 6 11 8 17 5
6 -4 6 -10 -1 -17z m40 0 c-13 -13 -26 -3 -16 12 3 6 11 8 17 5 6 -4 6 -10 -1
-17z m40 0 c-13 -13 -26 -3 -16 12 3 6 11 8 17 5 6 -4 6 -10 -1 -17z m39 3 c0
-5 -4 -10 -10 -10 -5 0 -10 5 -10 10 0 6 5 10 10 10 6 0 10 -4 10 -10z m-209
-43 c-13 -13 -26 -3 -16 12 3 6 11 8 17 5 6 -4 6 -10 -1 -17z m40 0 c-13 -13
-26 -3 -16 12 3 6 11 8 17 5 6 -4 6 -10 -1 -17z m40 0 c-13 -13 -26 -3 -16 12
3 6 11 8 17 5 6 -4 6 -10 -1 -17z m40 0 c-13 -13 -26 -3 -16 12 3 6 11 8 17 5
6 -4 6 -10 -1 -17z m40 0 c-13 -13 -26 -3 -16 12 3 6 11 8 17 5 6 -4 6 -10 -1
-17z m39 3 c0 -5 -4 -10 -10 -10 -5 0 -10 5 -10 10 0 6 5 10 10 10 6 0 10 -4
10 -10z"/>
<path d="M56 175 c5 -13 33 -15 187 -13 133 2 181 6 185 16 3 9 -39 12 -187
12 -166 0 -190 -2 -185 -15z"/>
<path d="M90 115 c18 -22 282 -22 300 0 11 13 -7 15 -150 15 -143 0 -161 -2
-150 -15z"/>
<path d="M165 58 c25 -15 125 -15 150 0 16 9 1 11 -75 11 -76 0 -91 -2 -75
-11z"/>
</g>
</svg>
