<?xml version="1.0" standalone="no"?>
<!DOCTYPE svg PUBLIC "-//W3C//DTD SVG 20010904//EN"
 "http://www.w3.org/TR/2001/REC-SVG-20010904/DTD/svg10.dtd">
<svg version="1.0" xmlns="http://www.w3.org/2000/svg"
 width="128.000000pt" height="128.000000pt" viewBox="0 0 128.000000 128.000000"
 preserveAspectRatio="xMidYMid meet">

<g transform="translate(0.000000,128.000000) scale(0.100000,-0.100000)"
fill="#000000" stroke="none">
<path d="M684 1261 c-51 -31 -63 -81 -39 -158 l7 -23 -150 0 c-139 0 -152 -2
-162 -19 -6 -12 -10 -134 -10 -325 0 -265 2 -306 15 -306 13 0 15 39 15 291 0
181 4 298 10 310 9 17 22 19 106 19 61 0 93 -4 89 -10 -3 -5 -39 -10 -80 -10
-112 0 -106 19 -103 -313 3 -259 4 -282 21 -285 16 -3 17 15 17 277 l0 281 64
0 c59 0 65 -2 68 -22 3 -23 5 -23 190 -26 l188 -2 6 25 c6 23 10 25 70 25 l63
0 3 -142 c4 -195 22 -185 26 14 2 114 -1 153 -10 160 -7 4 -48 8 -90 8 -47 0
-78 4 -78 10 0 7 35 10 98 8 l97 -3 3 -503 2 -502 -374 0 c-413 0 -386 -5
-386 65 0 19 5 37 10 40 6 4 10 -8 10 -27 0 -19 5 -39 12 -46 9 -9 89 -12 298
-12 l286 0 62 63 62 63 -2 239 c-4 312 -21 320 -28 13 l-5 -223 -55 -5 -55 -5
-5 -55 -5 -55 -262 -3 -263 -2 0 30 0 30 59 0 c33 0 63 5 66 10 4 6 57 10 126
10 108 0 124 2 169 25 64 32 65 54 6 89 -42 24 -53 26 -170 26 -72 0 -127 4
-131 10 -4 6 -60 10 -136 10 -74 0 -129 4 -129 9 0 17 16 20 67 12 57 -9 93 3
93 31 0 19 -20 24 -36 8 -6 -6 -29 -6 -60 -1 -63 9 -89 0 -98 -33 -4 -17 -13
-26 -26 -26 -10 0 -25 -8 -32 -19 -7 -10 -23 -21 -35 -25 -31 -10 -40 -51 -18
-76 10 -11 23 -20 29 -20 6 0 17 -9 24 -20 10 -17 23 -20 77 -20 l65 0 0 -58
c0 -97 -24 -92 417 -92 355 0 381 1 396 18 15 17 17 68 17 525 0 446 -2 507
-16 521 -13 13 -42 16 -164 16 l-149 0 15 35 c18 44 18 59 -2 101 -29 61 -101
81 -160 45z m113 -43 c27 -25 31 -79 8 -98 -8 -7 -15 -19 -15 -28 0 -23 30
-52 53 -52 26 0 57 -28 57 -52 0 -17 -11 -18 -155 -18 -127 0 -155 3 -155 14
0 31 14 46 51 56 49 13 66 42 44 72 -8 13 -15 37 -15 55 0 65 78 97 127 51z
m-282 -978 l0 -55 -145 0 -145 0 -3 44 c-5 74 -9 72 150 69 l143 -3 0 -55z
m245 0 l0 -41 -102 3 c-99 3 -103 4 -106 26 -7 48 1 52 108 52 l100 0 0 -40z
m70 10 c13 -9 13 -11 0 -20 -22 -15 -30 -12 -30 10 0 22 8 25 30 10z m-650
-10 c0 -5 -4 -10 -10 -10 -5 0 -10 5 -10 10 0 6 5 10 10 10 6 0 10 -4 10 -10z
m850 -67 c0 -10 -32 -43 -42 -43 -10 0 -11 34 -1 43 8 9 43 9 43 0z"/>
<path d="M706 1204 c-34 -33 -9 -94 38 -94 28 0 56 29 56 57 0 44 -63 69 -94
37z m54 -39 c0 -8 -6 -15 -14 -15 -17 0 -28 14 -19 24 12 12 33 6 33 -9z"/>
<path d="M536 784 c-20 -19 -21 -87 -2 -103 8 -7 36 -11 63 -9 l48 3 3 48 c2
27 -2 55 -9 63 -16 19 -84 18 -103 -2z m74 -54 c0 -25 -4 -30 -25 -30 -21 0
-25 5 -25 30 0 25 4 30 25 30 21 0 25 -5 25 -30z"/>
<path d="M730 685 c0 -13 16 -15 118 -13 153 4 151 22 -3 26 -99 2 -115 0
-115 -13z"/>
<path d="M532 558 c-17 -17 -15 -84 4 -102 19 -20 87 -21 103 -2 7 8 11 36 9
63 l-3 48 -50 3 c-30 2 -55 -2 -63 -10z m78 -48 c0 -25 -4 -30 -25 -30 -21 0
-25 5 -25 30 0 25 4 30 25 30 21 0 25 -5 25 -30z"/>
<path d="M735 469 c-15 -23 15 -30 121 -27 89 2 109 6 109 18 0 12 -20 16
-112 18 -74 2 -114 -1 -118 -9z"/>
</g>
</svg>
